<svg height="512" viewBox="0 0 64 64" width="512" xmlns="http://www.w3.org/2000/svg"><g id="Bracketing-exposure-automatic-photo-camera"><g fill="#9bc9ff"><path d="m56 48h-43v5h48v-34h-5z"/><path d="m56 19v-5h-5v29h-43v5h5 43z"/><path d="m51 14v-5h-48v34h48zm-44-1h8l-8 8zm0 22v-7.12l14.88-14.88h7.12zm3.09 4 26-26h6.91l-26 26zm36.91 0h-8l8-8zm0-15.16-15.16 15.16h-7.52l22.68-22.68z"/></g><g fill="#1e81ce"><path d="m61 18h-4v-4a1 1 0 0 0 -1-1h-4v-4a1 1 0 0 0 -1-1h-48a1 1 0 0 0 -1 1v34a1 1 0 0 0 1 1h4v4a1 1 0 0 0 1 1h4v4a1 1 0 0 0 1 1h48a1 1 0 0 0 1-1v-34a1 1 0 0 0 -1-1zm-57 24v-32h46v32zm5 5v-3h42a1 1 0 0 0 1-1v-28h3v32zm51 5h-46v-3h42a1 1 0 0 0 1-1v-28h3z"/><path d="m6.617 21.924a1 1 0 0 0 1.09-.217l8-8a1 1 0 0 0 -.707-1.707h-8a1 1 0 0 0 -1 1v8a1 1 0 0 0 .617.924zm1.383-7.924h4.586l-4.586 4.586z"/><path d="m29.924 12.617a1 1 0 0 0 -.924-.617h-7.12a1 1 0 0 0 -.707.293l-14.88 14.88a1 1 0 0 0 -.293.707v7.12a1 1 0 0 0 1.707.707l22-22a1 1 0 0 0 .217-1.09zm-21.924 19.969v-4.292l14.294-14.294h4.292z"/><path d="m9.166 39.383a1 1 0 0 0 .924.617h6.91a1 1 0 0 0 .707-.293l26-26a1 1 0 0 0 -.707-1.707h-6.91a1 1 0 0 0 -.707.293l-26 26a1 1 0 0 0 -.217 1.09zm27.334-25.383h4.082l-24 24h-4.082z"/><path d="m23.4 39.383a1 1 0 0 0 .92.617h7.52a1 1 0 0 0 .707-.293l15.16-15.16a1 1 0 0 0 .293-.707v-7.52a1 1 0 0 0 -1.707-.707l-22.68 22.68a1 1 0 0 0 -.213 1.09zm22.6-20.649v4.692l-14.574 14.574h-4.692z"/><path d="m47.383 30.076a1 1 0 0 0 -1.09.217l-8 8a1 1 0 0 0 .707 1.707h8a1 1 0 0 0 1-1v-8a1 1 0 0 0 -.617-.924zm-1.383 7.924h-4.586l4.586-4.586z"/></g></g></svg>