<?xml version="1.0" encoding="iso-8859-1"?>
<!-- Generator: Adobe Illustrator 19.0.0, SVG Export Plug-In . SVG Version: 6.00 Build 0)  -->
<svg version="1.1" id="Capa_1" xmlns="http://www.w3.org/2000/svg" xmlns:xlink="http://www.w3.org/1999/xlink" x="0px" y="0px"
	 viewBox="0 0 512.001 512.001" style="enable-background:new 0 0 512.001 512.001;" xml:space="preserve">
<path style="fill:#73BCFF;" d="M286,15.995H45c-24.901,0-45,20.099-45,45v90c0,24.899,20.099,45,45,45h16v45
	c0,6,3.6,11.4,9.3,13.799c1.8,0.901,3.9,1.201,5.7,1.201c3.9,0,7.8-1.5,10.499-4.501l55.801-55.499H196c1.199,0,2.401,0,3.6-0.601
	l120-30c6.601-1.5,11.4-7.5,11.4-14.399v-90C331,36.094,310.901,15.995,286,15.995z"/>
<path style="fill:#3AAAFF;" d="M331,60.995v90c0,6.899-4.799,12.9-11.4,14.399l-120,30c-1.199,0.601-2.401,0.601-3.6,0.601h-30v-180
	h120C310.901,15.995,331,36.094,331,60.995z"/>
<path style="fill:#FF6C6C;" d="M467,135.995H226c-24.901,0-45,20.099-45,45v90c0,6.899,4.799,12.9,11.4,14.399
	c2.699,0.901,120.899,30.601,123.6,30.601h62.999l45.601,54.6c3.9,4.799,10.499,6.599,16.5,4.499s9.901-7.8,9.901-14.099v-45h16
	c24.901,0,45-20.101,45-45v-90C512,156.094,491.901,135.995,467,135.995z"/>
<path style="fill:#FF4949;" d="M512,180.995v90c0,24.899-20.099,45-45,45h-16v45c0,6.299-3.9,11.999-9.901,14.099
	s-12.599,0.3-16.5-4.499l-45.601-54.6H346v-180h121C491.901,135.995,512,156.094,512,180.995z"/>
<path style="fill:#FFD400;" d="M286,255.995H45c-24.901,0-45,20.099-45,45v90c0,24.899,20.099,45,45,45h16v45
	c0,6,3.6,11.4,9.3,13.799c5.4,2.401,12.001,1.201,16.199-3.3l55.801-55.499H286c24.901,0,45-20.101,45-45v-90
	C331,276.094,310.901,255.995,286,255.995z"/>
<path style="fill:#FDBF00;" d="M331,300.995v90c0,24.899-20.099,45-45,45H166v-180h120C310.901,255.995,331,276.094,331,300.995z"/>
<circle style="fill:#384949;" cx="406" cy="226" r="15"/>
<g>
	<path style="fill:#3E5959;" d="M361,225.995c0,8.399-6.599,15-15,15s-15-6.601-15-15c0-8.401,6.599-15,15-15
		S361,217.594,361,225.995z"/>
	<circle style="fill:#3E5959;" cx="286" cy="226" r="15"/>
</g>
<circle style="fill:#384949;" cx="226" cy="90.995" r="15"/>
<g>
	<path style="fill:#3E5959;" d="M181,90.995c0,8.399-6.599,15-15,15s-15-6.601-15-15c0-8.401,6.599-15,15-15S181,82.594,181,90.995z
		"/>
	<circle style="fill:#3E5959;" cx="106" cy="90.995" r="15"/>
</g>
<circle style="fill:#384949;" cx="226" cy="346" r="15"/>
<g>
	<path style="fill:#3E5959;" d="M181,345.995c0,8.399-6.599,15-15,15s-15-6.601-15-15c0-8.401,6.599-15,15-15
		S181,337.594,181,345.995z"/>
	<circle style="fill:#3E5959;" cx="106" cy="346" r="15"/>
</g>
<g>
	<path style="fill:#384949;" d="M181,345.995c0,8.399-6.599,15-15,15v-30C174.401,330.995,181,337.594,181,345.995z"/>
	<path style="fill:#384949;" d="M166,105.995v-30c8.401,0,15,6.599,15,15C181,99.394,174.401,105.995,166,105.995z"/>
	<path style="fill:#384949;" d="M361,225.995c0,8.399-6.599,15-15,15v-30C354.401,210.995,361,217.594,361,225.995z"/>
</g>
<g>
</g>
<g>
</g>
<g>
</g>
<g>
</g>
<g>
</g>
<g>
</g>
<g>
</g>
<g>
</g>
<g>
</g>
<g>
</g>
<g>
</g>
<g>
</g>
<g>
</g>
<g>
</g>
<g>
</g>
</svg>
