<?xml version="1.0" encoding="UTF-8" standalone="no" ?>
<!DOCTYPE svg PUBLIC "-//W3C//DTD SVG 1.1//EN" "http://www.w3.org/Graphics/SVG/1.1/DTD/svg11.dtd">
<svg xmlns="http://www.w3.org/2000/svg" xmlns:xlink="http://www.w3.org/1999/xlink" version="1.1" width="350" height="350" viewBox="0 0 350 350" xml:space="preserve">
<desc>Created with Fabric.js 1.7.22</desc>
<defs>
</defs>
<g id="icon" style="stroke: none; stroke-width: 1; stroke-dasharray: none; stroke-linecap: butt; stroke-linejoin: miter; stroke-miterlimit: 10; fill: none; fill-rule: nonzero; opacity: 1;" transform="translate(-1.9444444444444287 -1.9444444444444287) scale(3.89 3.89)" >
	<path d="M 61.231 13.013 h 9.163 c 2.148 0 3.889 1.741 3.889 3.889 v 67.186 c 0 2.148 -1.741 3.889 -3.889 3.889 H 19.606 c -2.148 0 -3.889 -1.741 -3.889 -3.889 V 16.902 c 0 -2.148 1.741 -3.889 3.889 -3.889 h 9.163 H 61.231 z" style="stroke: none; stroke-width: 1; stroke-dasharray: none; stroke-linecap: butt; stroke-linejoin: miter; stroke-miterlimit: 10; fill: rgb(217,229,255); fill-rule: nonzero; opacity: 1;" transform=" matrix(1 0 0 1 0 0) " stroke-linecap="round" />
	<path d="M 30.861 57.522 h -5.003 c -1.285 0 -2.331 -1.046 -2.331 -2.331 v -5.004 c 0 -1.285 1.045 -2.331 2.331 -2.331 h 5.003 c 1.285 0 2.331 1.046 2.331 2.331 v 5.004 C 33.192 56.476 32.146 57.522 30.861 57.522 z M 25.858 49.879 c -0.17 0 -0.308 0.138 -0.308 0.308 v 5.004 c 0 0.17 0.138 0.308 0.308 0.308 h 5.003 c 0.17 0 0.308 -0.138 0.308 -0.308 v -5.004 c 0 -0.17 -0.138 -0.308 -0.308 -0.308 H 25.858 z" style="stroke: none; stroke-width: 1; stroke-dasharray: none; stroke-linecap: butt; stroke-linejoin: miter; stroke-miterlimit: 10; fill: rgb(90,115,128); fill-rule: nonzero; opacity: 1;" transform=" matrix(1 0 0 1 0 0) " stroke-linecap="round" />
	<path d="M 70.393 90 H 19.606 c -3.259 0 -5.911 -2.652 -5.911 -5.911 V 16.902 c 0 -3.259 2.652 -5.911 5.911 -5.911 h 50.787 c 3.26 0 5.912 2.652 5.912 5.911 v 67.186 C 76.306 87.348 73.653 90 70.393 90 z M 19.606 15.036 c -1.029 0 -1.866 0.837 -1.866 1.866 v 67.186 c 0 1.029 0.837 1.866 1.866 1.866 h 50.787 c 1.03 0 1.867 -0.837 1.867 -1.866 V 16.902 c 0 -1.029 -0.837 -1.866 -1.867 -1.866 H 19.606 z" style="stroke: none; stroke-width: 1; stroke-dasharray: none; stroke-linecap: butt; stroke-linejoin: miter; stroke-miterlimit: 10; fill: rgb(230,58,87); fill-rule: nonzero; opacity: 1;" transform=" matrix(1 0 0 1 0 0) " stroke-linecap="round" />
	<path d="M 64.488 49.879 H 39.814 c -0.558 0 -1.011 -0.452 -1.011 -1.011 s 0.453 -1.011 1.011 -1.011 h 24.674 c 0.559 0 1.011 0.452 1.011 1.011 S 65.047 49.879 64.488 49.879 z" style="stroke: none; stroke-width: 1; stroke-dasharray: none; stroke-linecap: butt; stroke-linejoin: miter; stroke-miterlimit: 10; fill: rgb(90,115,128); fill-rule: nonzero; opacity: 1;" transform=" matrix(1 0 0 1 0 0) " stroke-linecap="round" />
	<path d="M 52.739 57.522 H 39.814 c -0.558 0 -1.011 -0.452 -1.011 -1.011 s 0.453 -1.011 1.011 -1.011 h 12.925 c 0.559 0 1.011 0.452 1.011 1.011 S 53.298 57.522 52.739 57.522 z" style="stroke: none; stroke-width: 1; stroke-dasharray: none; stroke-linecap: butt; stroke-linejoin: miter; stroke-miterlimit: 10; fill: rgb(90,115,128); fill-rule: nonzero; opacity: 1;" transform=" matrix(1 0 0 1 0 0) " stroke-linecap="round" />
	<path d="M 27.595 38.884 c -0.322 0 -0.627 -0.154 -0.817 -0.416 l -3.057 -4.195 c -0.329 -0.451 -0.23 -1.084 0.222 -1.413 c 0.452 -0.329 1.084 -0.229 1.413 0.222 l 2.158 2.961 l 3.8 -6.333 c 0.287 -0.479 0.908 -0.635 1.387 -0.347 c 0.479 0.287 0.634 0.909 0.347 1.387 l -4.585 7.642 c -0.174 0.291 -0.483 0.475 -0.822 0.49 C 27.626 38.883 27.61 38.884 27.595 38.884 z" style="stroke: none; stroke-width: 1; stroke-dasharray: none; stroke-linecap: butt; stroke-linejoin: miter; stroke-miterlimit: 10; fill: rgb(120,195,64); fill-rule: nonzero; opacity: 1;" transform=" matrix(1 0 0 1 0 0) " stroke-linecap="round" />
	<path d="M 64.488 31.242 H 39.814 c -0.558 0 -1.011 -0.453 -1.011 -1.011 s 0.453 -1.011 1.011 -1.011 h 24.674 c 0.559 0 1.011 0.453 1.011 1.011 S 65.047 31.242 64.488 31.242 z" style="stroke: none; stroke-width: 1; stroke-dasharray: none; stroke-linecap: butt; stroke-linejoin: miter; stroke-miterlimit: 10; fill: rgb(120,195,64); fill-rule: nonzero; opacity: 1;" transform=" matrix(1 0 0 1 0 0) " stroke-linecap="round" />
	<path d="M 52.739 38.884 H 39.814 c -0.558 0 -1.011 -0.453 -1.011 -1.011 c 0 -0.558 0.453 -1.011 1.011 -1.011 h 12.925 c 0.559 0 1.011 0.453 1.011 1.011 C 53.75 38.431 53.298 38.884 52.739 38.884 z" style="stroke: none; stroke-width: 1; stroke-dasharray: none; stroke-linecap: butt; stroke-linejoin: miter; stroke-miterlimit: 10; fill: rgb(120,195,64); fill-rule: nonzero; opacity: 1;" transform=" matrix(1 0 0 1 0 0) " stroke-linecap="round" />
	<path d="M 30.861 76.957 h -5.003 c -1.285 0 -2.331 -1.046 -2.331 -2.331 v -5.003 c 0 -1.285 1.045 -2.331 2.331 -2.331 h 5.003 c 1.285 0 2.331 1.046 2.331 2.331 v 5.003 C 33.192 75.911 32.146 76.957 30.861 76.957 z M 25.858 69.315 c -0.17 0 -0.308 0.138 -0.308 0.308 v 5.003 c 0 0.17 0.138 0.308 0.308 0.308 h 5.003 c 0.17 0 0.308 -0.138 0.308 -0.308 v -5.003 c 0 -0.17 -0.138 -0.308 -0.308 -0.308 H 25.858 z" style="stroke: none; stroke-width: 1; stroke-dasharray: none; stroke-linecap: butt; stroke-linejoin: miter; stroke-miterlimit: 10; fill: rgb(90,115,128); fill-rule: nonzero; opacity: 1;" transform=" matrix(1 0 0 1 0 0) " stroke-linecap="round" />
	<path d="M 64.488 69.315 H 39.814 c -0.558 0 -1.011 -0.452 -1.011 -1.011 s 0.453 -1.011 1.011 -1.011 h 24.674 c 0.559 0 1.011 0.452 1.011 1.011 S 65.047 69.315 64.488 69.315 z" style="stroke: none; stroke-width: 1; stroke-dasharray: none; stroke-linecap: butt; stroke-linejoin: miter; stroke-miterlimit: 10; fill: rgb(90,115,128); fill-rule: nonzero; opacity: 1;" transform=" matrix(1 0 0 1 0 0) " stroke-linecap="round" />
	<path d="M 52.739 76.957 H 39.814 c -0.558 0 -1.011 -0.452 -1.011 -1.011 c 0 -0.559 0.453 -1.011 1.011 -1.011 h 12.925 c 0.559 0 1.011 0.452 1.011 1.011 C 53.75 76.504 53.298 76.957 52.739 76.957 z" style="stroke: none; stroke-width: 1; stroke-dasharray: none; stroke-linecap: butt; stroke-linejoin: miter; stroke-miterlimit: 10; fill: rgb(90,115,128); fill-rule: nonzero; opacity: 1;" transform=" matrix(1 0 0 1 0 0) " stroke-linecap="round" />
	<path d="M 52.36 5.272 h -0.514 C 51.042 2.239 48.286 0 45 0 s -6.042 2.239 -6.845 5.272 H 37.64 c -4.899 0 -8.871 3.972 -8.871 8.871 v 1.41 c 0 1.119 0.907 2.025 2.025 2.025 h 28.412 c 1.119 0 2.025 -0.907 2.025 -2.025 v -1.41 C 61.231 9.244 57.259 5.272 52.36 5.272 z" style="stroke: none; stroke-width: 1; stroke-dasharray: none; stroke-linecap: butt; stroke-linejoin: miter; stroke-miterlimit: 10; fill: rgb(90,115,128); fill-rule: nonzero; opacity: 1;" transform=" matrix(1 0 0 1 0 0) " stroke-linecap="round" />
	<circle cx="44.996" cy="8.876" r="2.076" style="stroke: none; stroke-width: 1; stroke-dasharray: none; stroke-linecap: butt; stroke-linejoin: miter; stroke-miterlimit: 10; fill: rgb(66,91,104); fill-rule: nonzero; opacity: 1;" transform="  matrix(1 0 0 1 0 0) "/>
</g>
</svg>