<svg id="Capa_1" enable-background="new 0 0 512 512" height="512" viewBox="0 0 512 512" width="512" xmlns="http://www.w3.org/2000/svg"><g><g><path d="m369.663 143.499h-127.666c-8.284 0-15-6.716-15-15s6.716-15 15-15h127.666c8.284 0 15 6.716 15 15s-6.716 15-15 15z" fill="#3c6eaf"/></g><g><path d="m270.003 398.501h-127.666c-8.284 0-15-6.716-15-15s6.716-15 15-15h127.666c8.284 0 15 6.716 15 15s-6.716 15-15 15z" fill="#3c6eaf"/></g><g><path d="m303.24 318.24c-3.839 0-7.678-1.464-10.606-4.394l-94.49-94.49c-5.858-5.858-5.858-15.355 0-21.213 5.857-5.858 15.355-5.858 21.213 0l94.49 94.49c5.858 5.858 5.858 15.355 0 21.213-2.929 2.93-6.768 4.394-10.607 4.394z" fill="#3c6eaf"/></g><circle cx="433.331" cy="128.498" fill="#00cab0" r="63.669"/><circle cx="78.669" cy="383.502" fill="#f87f02" r="63.669"/><g><g><path d="m257 128.5c0 41.77-20.02 79.67-51.99 103.32-13.16 9.75-76.51-8.76-76.51-8.76s-63.35 18.51-76.51 8.76c-31.97-23.65-51.99-61.55-51.99-103.32 0-70.86 57.64-128.5 128.5-128.5 70.85 0 128.5 57.64 128.5 128.5z" fill="#7ed8f6"/></g><path d="m257 128.5c0 41.77-20.02 79.67-51.99 103.32-13.16 9.75-76.51-8.76-76.51-8.76v-223.06c70.85 0 128.5 57.64 128.5 128.5z" fill="#6aa9ff"/><g><g><circle cx="128.499" cy="108.32" fill="#fdc" r="43.49"/></g><path d="m205.01 228.32v3.5c-13.16 9.75-28.35 17.08-45.01 21.28-10.26 2.59-20.86 3.9-31.5 3.9-10.65 0-21.25-1.31-31.51-3.9-16.65-4.2-31.84-11.53-45-21.28v-3.5c0-42.19 34.32-76.51 76.51-76.51s76.51 34.32 76.51 76.51z" fill="#ff415b"/><path d="m205.01 228.32v3.5c-13.16 9.75-28.35 17.08-45.01 21.28-10.26 2.59-20.86 3.9-31.5 3.9v-105.19c42.19 0 76.51 34.32 76.51 76.51z" fill="#e50058"/><path d="m171.989 108.32c0 23.98-19.51 43.49-43.49 43.49v-86.98c23.98 0 43.49 19.51 43.49 43.49z" fill="#ffcbba"/></g></g><g><path d="m512 383.5c0 41.77-20.02 79.67-51.99 103.32-13.16 9.75-76.51-9.33-76.51-9.33s-63.35 19.08-76.51 9.33c-31.97-23.65-51.99-61.55-51.99-103.32 0-70.86 57.64-128.5 128.5-128.5 70.85 0 128.5 57.64 128.5 128.5z" fill="#7ed8f6"/></g><path d="m512 383.5c0 41.77-20.02 79.67-51.99 103.32-13.16 9.75-76.51-9.33-76.51-9.33v-222.49c70.85 0 128.5 57.64 128.5 128.5z" fill="#6aa9ff"/><g><circle cx="383.499" cy="363.32" fill="#fdc" r="43.49"/></g><path d="m460.01 483.32v3.5c-13.16 9.75-28.35 17.08-45.01 21.28-10.26 2.59-20.86 3.9-31.5 3.9-10.65 0-21.25-1.31-31.51-3.9-16.65-4.2-31.84-11.53-45-21.28v-3.5c0-42.19 34.32-76.51 76.51-76.51s76.51 34.32 76.51 76.51z" fill="#3c6eaf"/><path d="m460.01 483.32v3.5c-13.16 9.75-28.35 17.08-45.01 21.28-10.26 2.59-20.86 3.9-31.5 3.9v-105.19c42.19 0 76.51 34.32 76.51 76.51z" fill="#004881"/><path d="m426.988 363.32c0 23.98-19.51 43.49-43.49 43.49v-86.98c23.98 0 43.49 19.51 43.49 43.49z" fill="#ffcbba"/></g></svg>